<svg width="49" height="48" viewBox="0 0 49 48" fill="none" xmlns="http://www.w3.org/2000/svg">
<rect x="1.5" y="1" width="46" height="46" rx="23" stroke="black" stroke-width="2"/>
<path fill-rule="evenodd" clip-rule="evenodd" d="M22.8333 30.6665H24.5V25.4998C24.5 25.039 24.8725 24.6665 25.3333 24.6665H27.2L27.5708 23.3332H25.3333C24.8725 23.3332 24.5 22.9607 24.5 22.4998V20.2498C24.5 19.3765 25.2475 18.6665 26.1666 18.6665H27.8333V17.3332H26.1666C24.3283 17.3332 22.8333 18.6415 22.8333 20.2498V22.4998C22.8333 22.9607 22.4608 23.3332 22 23.3332H20.3333V24.6665H22C22.4608 24.6665 22.8333 25.039 22.8333 25.4998V30.6665ZM25.3333 32.3332H22C21.5391 32.3332 21.1666 31.9607 21.1666 31.4998V26.3332H19.5C19.0391 26.3332 18.6666 25.9607 18.6666 25.4998V22.4998C18.6666 22.039 19.0391 21.6665 19.5 21.6665H21.1666V20.2498C21.1666 17.7232 23.4091 15.6665 26.1666 15.6665H28.6666C29.1275 15.6665 29.5 16.039 29.5 16.4998V19.4998C29.5 19.9598 29.1275 20.3332 28.6666 20.3332H26.1666V21.6665H28.6666C28.9266 21.6665 29.1725 21.789 29.33 21.9957C29.4875 22.2032 29.5391 22.4723 29.47 22.7232L28.6366 25.7223C28.5366 26.0832 28.2075 26.3332 27.8333 26.3332H26.1666V31.4998C26.1666 31.9607 25.7941 32.3332 25.3333 32.3332Z" fill="black"/>
<mask id="mask0" style="mask-type:alpha" maskUnits="userSpaceOnUse" x="18" y="15" width="12" height="18">
<path fill-rule="evenodd" clip-rule="evenodd" d="M22.8333 30.6665H24.5V25.4998C24.5 25.039 24.8725 24.6665 25.3333 24.6665H27.2L27.5708 23.3332H25.3333C24.8725 23.3332 24.5 22.9607 24.5 22.4998V20.2498C24.5 19.3765 25.2475 18.6665 26.1666 18.6665H27.8333V17.3332H26.1666C24.3283 17.3332 22.8333 18.6415 22.8333 20.2498V22.4998C22.8333 22.9607 22.4608 23.3332 22 23.3332H20.3333V24.6665H22C22.4608 24.6665 22.8333 25.039 22.8333 25.4998V30.6665ZM25.3333 32.3332H22C21.5391 32.3332 21.1666 31.9607 21.1666 31.4998V26.3332H19.5C19.0391 26.3332 18.6666 25.9607 18.6666 25.4998V22.4998C18.6666 22.039 19.0391 21.6665 19.5 21.6665H21.1666V20.2498C21.1666 17.7232 23.4091 15.6665 26.1666 15.6665H28.6666C29.1275 15.6665 29.5 16.039 29.5 16.4998V19.4998C29.5 19.9598 29.1275 20.3332 28.6666 20.3332H26.1666V21.6665H28.6666C28.9266 21.6665 29.1725 21.789 29.33 21.9957C29.4875 22.2032 29.5391 22.4723 29.47 22.7232L28.6366 25.7223C28.5366 26.0832 28.2075 26.3332 27.8333 26.3332H26.1666V31.4998C26.1666 31.9607 25.7941 32.3332 25.3333 32.3332Z" fill="white"/>
</mask>
<g mask="url(#mask0)">
<rect x="14.5" y="14" width="20" height="20" fill="black"/>
</g>
</svg>
