<svg width="49" height="48" viewBox="0 0 49 48" fill="none" xmlns="http://www.w3.org/2000/svg">
<rect x="1.5" y="1" width="46" height="46" rx="23" stroke="black" stroke-width="2"/>
<path fill-rule="evenodd" clip-rule="evenodd" d="M31.3464 19.5452V19.5468V19.5452ZM22.5939 28.9977C22.6139 28.9977 22.6355 28.9986 22.6555 29.0002C27.4014 28.9694 30.2339 25.3436 30.2339 21.8386C30.2339 21.5202 30.3972 21.3144 30.5422 21.1319C30.6739 20.9652 30.878 20.7086 31.0597 20.3386C30.3989 20.3319 29.8089 20.0386 29.4655 19.6369C29.1064 19.2527 28.5905 19.0177 28.0339 19.0011C27.4972 18.9794 26.9497 19.1861 26.543 19.5719C26.0014 20.0861 25.7697 20.8619 25.938 21.5952L26.1555 22.5444L25.1839 22.6127C22.6705 22.8011 20.9289 21.7252 19.733 20.6119C19.738 22.2952 20.2972 24.5411 22.8389 25.9894L23.6372 26.4444L23.1064 27.1952C22.5539 27.9777 21.7222 28.4769 20.8755 28.7961C21.4347 28.9294 22.0097 28.9977 22.583 28.9977H22.593H22.5939ZM22.5939 30.6669C22.5722 30.6669 22.5489 30.666 22.5272 30.6644C21.1914 30.6552 19.8514 30.3444 18.648 29.7619C18.1955 29.5419 17.9397 29.0602 18.0122 28.5602C18.0855 28.0544 18.4739 27.6577 18.9772 27.576C19.848 27.4327 20.5705 27.1777 21.0939 26.8369C17.863 24.421 17.948 20.8044 18.1572 19.2727C18.2189 18.8244 18.538 18.4502 18.9697 18.3194C19.408 18.186 19.8622 18.3194 20.1622 18.6602C21.4422 20.111 22.7214 20.8402 24.2214 20.951C24.2647 19.9802 24.678 19.0444 25.3955 18.3627C26.1264 17.6685 27.0822 17.3052 28.0855 17.3352C29.0897 17.366 30.0214 17.7894 30.708 18.5269C30.778 18.6069 31.0397 18.7519 31.3555 18.6102C31.7697 18.4244 32.2405 18.486 32.5839 18.7727C32.9264 19.0569 33.0722 19.5044 32.9655 19.9402C32.6964 21.0494 32.1647 21.7644 31.8964 22.1069C31.7564 26.361 28.2997 30.6669 22.5939 30.6669Z" fill="#231F20"/>
<mask id="mask0" style="mask-type:alpha" maskUnits="userSpaceOnUse" x="18" y="17" width="15" height="14">
<path fill-rule="evenodd" clip-rule="evenodd" d="M31.3464 19.5452V19.5468V19.5452ZM22.5939 28.9977C22.6139 28.9977 22.6355 28.9986 22.6555 29.0002C27.4014 28.9694 30.2339 25.3436 30.2339 21.8386C30.2339 21.5202 30.3972 21.3144 30.5422 21.1319C30.6739 20.9652 30.878 20.7086 31.0597 20.3386C30.3989 20.3319 29.8089 20.0386 29.4655 19.6369C29.1064 19.2527 28.5905 19.0177 28.0339 19.0011C27.4972 18.9794 26.9497 19.1861 26.543 19.5719C26.0014 20.0861 25.7697 20.8619 25.938 21.5952L26.1555 22.5444L25.1839 22.6127C22.6705 22.8011 20.9289 21.7252 19.733 20.6119C19.738 22.2952 20.2972 24.5411 22.8389 25.9894L23.6372 26.4444L23.1064 27.1952C22.5539 27.9777 21.7222 28.4769 20.8755 28.7961C21.4347 28.9294 22.0097 28.9977 22.583 28.9977H22.593H22.5939ZM22.5939 30.6669C22.5722 30.6669 22.5489 30.666 22.5272 30.6644C21.1914 30.6552 19.8514 30.3444 18.648 29.7619C18.1955 29.5419 17.9397 29.0602 18.0122 28.5602C18.0855 28.0544 18.4739 27.6577 18.9772 27.576C19.848 27.4327 20.5705 27.1777 21.0939 26.8369C17.863 24.421 17.948 20.8044 18.1572 19.2727C18.2189 18.8244 18.538 18.4502 18.9697 18.3194C19.408 18.186 19.8622 18.3194 20.1622 18.6602C21.4422 20.111 22.7214 20.8402 24.2214 20.951C24.2647 19.9802 24.678 19.0444 25.3955 18.3627C26.1264 17.6685 27.0822 17.3052 28.0855 17.3352C29.0897 17.366 30.0214 17.7894 30.708 18.5269C30.778 18.6069 31.0397 18.7519 31.3555 18.6102C31.7697 18.4244 32.2405 18.486 32.5839 18.7727C32.9264 19.0569 33.0722 19.5044 32.9655 19.9402C32.6964 21.0494 32.1647 21.7644 31.8964 22.1069C31.7564 26.361 28.2997 30.6669 22.5939 30.6669Z" fill="white"/>
</mask>
<g mask="url(#mask0)">
<rect x="15.5" y="14" width="20" height="20" fill="black"/>
</g>
</svg>
