<svg width="49" height="48" viewBox="0 0 49 48" fill="none" xmlns="http://www.w3.org/2000/svg">
<rect x="1.5" y="1" width="46" height="46" rx="23" stroke="black" stroke-width="2"/>
<path fill-rule="evenodd" clip-rule="evenodd" d="M31.8259 27.6375C31.7854 28.515 31.6398 28.9914 31.5163 29.3077C31.3534 29.7291 31.1576 30.028 30.8433 30.3433C30.5279 30.6587 30.228 30.8535 29.8076 31.0164C29.4913 31.1399 29.0139 31.2864 28.1364 31.326C27.1875 31.3694 26.903 31.379 24.5 31.379C22.0969 31.379 21.8114 31.3694 20.8625 31.326C19.986 31.2864 19.5096 31.1399 19.1914 31.0164C18.7719 30.8535 18.472 30.6587 18.1567 30.3433C17.8423 30.028 17.6465 29.7291 17.4836 29.3077C17.3601 28.9914 17.2136 28.515 17.174 27.6375C17.1306 26.6886 17.121 26.4041 17.121 24.001C17.121 21.5969 17.1306 21.3125 17.174 20.3636C17.2136 19.4861 17.3601 19.0097 17.4836 18.6924C17.6465 18.272 17.8423 17.973 18.1567 17.6567C18.472 17.3424 18.7719 17.1476 19.1914 16.9836C19.5096 16.8602 19.986 16.7146 20.8625 16.6741C21.8124 16.6307 22.0969 16.622 24.5 16.622C26.903 16.622 27.1875 16.6307 28.1364 16.6741C29.0139 16.7146 29.4913 16.8602 29.8076 16.9836C30.228 17.1476 30.5279 17.3424 30.8423 17.6567C31.1576 17.973 31.3534 18.272 31.5163 18.6924C31.6398 19.0097 31.7854 19.4861 31.8259 20.3636C31.8693 21.3125 31.8789 21.5969 31.8789 24.001C31.8789 26.4041 31.8693 26.6886 31.8259 27.6375ZM33.446 20.2893C33.4026 19.3317 33.2502 18.677 33.0275 18.1041C32.798 17.513 32.4904 17.0106 31.9899 16.5111C31.4894 16.0096 30.987 15.702 30.3959 15.4725C29.823 15.2498 29.1692 15.0974 28.2107 15.054C27.2502 15.0096 26.9446 15 24.5 15C22.0554 15 21.7488 15.0096 20.7893 15.054C19.8317 15.0974 19.177 15.2498 18.6051 15.4725C18.0121 15.702 17.5106 16.0096 17.0101 16.5111C16.5096 17.0106 16.202 17.513 15.9725 18.1041C15.7498 18.677 15.5974 19.3317 15.553 20.2893C15.5106 21.2498 15.5 21.5554 15.5 24.001C15.5 26.4446 15.5106 26.7512 15.553 27.7107C15.5974 28.6692 15.7498 29.323 15.9725 29.8959C16.202 30.4879 16.5096 30.9904 17.0101 31.4899C17.5106 31.9904 18.0121 32.298 18.6051 32.5275C19.177 32.7512 19.8317 32.9026 20.7893 32.947C21.7488 32.9904 22.0554 33.001 24.5 33.001C26.9446 33.001 27.2502 32.9904 28.2107 32.947C29.1692 32.9026 29.823 32.7512 30.3959 32.5275C30.987 32.298 31.4894 31.9904 31.9899 31.4899C32.4904 30.9904 32.798 30.4879 33.0275 29.8959C33.2502 29.323 33.4026 28.6692 33.446 27.7107C33.4904 26.7512 33.5 26.4446 33.5 24.001C33.5 21.5554 33.4904 21.2498 33.446 20.2893Z" fill="black"/>
<path fill-rule="evenodd" clip-rule="evenodd" d="M24.4999 27.0008C22.8432 27.0008 21.4999 25.6565 21.4999 24.0008C21.4999 22.3431 22.8432 20.9998 24.4999 20.9998C26.1566 20.9998 27.4999 22.3431 27.4999 24.0008C27.4999 25.6565 26.1566 27.0008 24.4999 27.0008ZM24.4999 19.3789C21.9474 19.3789 19.8789 21.4474 19.8789 24.0009C19.8789 26.5525 21.9474 28.6229 24.4999 28.6229C27.0525 28.6229 29.1219 26.5525 29.1219 24.0009C29.1219 21.4474 27.0525 19.3789 24.4999 19.3789Z" fill="black"/>
<path fill-rule="evenodd" clip-rule="evenodd" d="M30.5173 19.2949C30.5173 19.8908 30.0341 20.3749 29.4372 20.3749C28.8413 20.3749 28.3572 19.8908 28.3572 19.2949C28.3572 18.6989 28.8413 18.2148 29.4372 18.2148C30.0341 18.2148 30.5173 18.6989 30.5173 19.2949Z" fill="black"/>
</svg>
