<svg width="160" height="62" viewBox="0 0 160 62" fill="none" xmlns="http://www.w3.org/2000/svg">
<g clip-path="url(#clip0)">
<path d="M34.2805 18L41.9365 1.08H43.7125L51.3685 18H49.3285L47.3605 13.56H38.2165L36.2245 18H34.2805ZM38.9605 11.856H46.6165L42.8005 3.288L38.9605 11.856ZM63.1921 18.264C61.0641 18.264 59.3681 17.632 58.1041 16.368C56.8401 15.088 56.2081 13.288 56.2081 10.968V1.2H58.1041V10.848C58.1041 12.656 58.5521 14.056 59.4481 15.048C60.3601 16.024 61.6241 16.512 63.2401 16.512C64.8241 16.512 66.0641 16.04 66.9601 15.096C67.8561 14.152 68.3041 12.776 68.3041 10.968V1.2H70.2001V10.824C70.2001 13.224 69.5681 15.064 68.3041 16.344C67.0401 17.624 65.3361 18.264 63.1921 18.264ZM77.083 18V1.2H82.915C85.539 1.2 87.683 2 89.347 3.6C91.011 5.184 91.843 7.184 91.843 9.6C91.843 12 91.003 14 89.323 15.6C87.659 17.2 85.523 18 82.915 18H77.083ZM78.979 16.248H82.915C85.011 16.248 86.691 15.624 87.955 14.376C89.235 13.112 89.875 11.52 89.875 9.6C89.875 7.696 89.235 6.112 87.955 4.848C86.675 3.584 84.995 2.952 82.915 2.952H78.979V16.248ZM98.4245 18V1.2H100.32V18H98.4245ZM121.609 15.744C119.993 17.44 117.937 18.288 115.441 18.288C112.945 18.288 110.897 17.44 109.297 15.744C107.697 14.048 106.897 12 106.897 9.6C106.897 7.216 107.705 5.176 109.321 3.48C110.937 1.768 112.993 0.912 115.489 0.912C117.985 0.912 120.033 1.76 121.633 3.456C123.233 5.152 124.033 7.2 124.033 9.6C124.033 11.984 123.225 14.032 121.609 15.744ZM110.737 14.52C112.001 15.864 113.585 16.536 115.489 16.536C117.393 16.536 118.961 15.872 120.193 14.544C121.441 13.2 122.065 11.552 122.065 9.6C122.065 7.664 121.433 6.024 120.169 4.68C118.921 3.336 117.345 2.664 115.441 2.664C113.537 2.664 111.961 3.336 110.713 4.68C109.481 6.008 108.865 7.648 108.865 9.6C108.865 11.536 109.489 13.176 110.737 14.52Z" fill="black"/>
<path d="M159.935 33H0V31H159.935V33Z" fill="black"/>
<path d="M42.1993 61.24C39.6233 61.24 37.3353 60.344 35.3353 58.552L36.5113 57.16C37.4073 57.976 38.3033 58.576 39.1993 58.96C40.1113 59.344 41.1353 59.536 42.2713 59.536C43.3913 59.536 44.2953 59.272 44.9833 58.744C45.6713 58.2 46.0153 57.496 46.0153 56.632C46.0153 55.816 45.7113 55.168 45.1033 54.688C44.4953 54.208 43.3433 53.792 41.6473 53.44C39.6473 53.008 38.2073 52.424 37.3273 51.688C36.4473 50.952 36.0073 49.904 36.0073 48.544C36.0073 47.216 36.5273 46.12 37.5673 45.256C38.6073 44.392 39.9273 43.96 41.5273 43.96C43.7513 43.96 45.7193 44.648 47.4313 46.024L46.3273 47.488C44.8393 46.272 43.2233 45.664 41.4793 45.664C40.4073 45.664 39.5433 45.928 38.8873 46.456C38.2313 46.968 37.9033 47.624 37.9033 48.424C37.9033 49.256 38.2153 49.912 38.8393 50.392C39.4793 50.872 40.6873 51.304 42.4633 51.688C44.3673 52.104 45.7513 52.688 46.6153 53.44C47.4953 54.176 47.9353 55.192 47.9353 56.488C47.9353 57.912 47.3993 59.064 46.3273 59.944C45.2553 60.808 43.8793 61.24 42.1993 61.24ZM54.1908 61V44.2H56.0868V51.664H65.7828V44.2H67.6788V61H65.7828V53.44H56.0868V61H54.1908ZM74.8252 61V44.2H86.9692V45.928H76.7212V51.664H85.8892V53.392H76.7212V59.272H87.0892V61H74.8252ZM93.3033 61V44.2H95.1993V59.248H104.655V61H93.3033ZM110.563 61V44.2H122.635V45.952H112.459V51.952H121.555V53.68H112.459V61H110.563Z" fill="black"/>
<path d="M8 33H12.5L10.25 37L8 33Z" fill="black"/>
<path d="M147 33H151.5L149.25 37L147 33Z" fill="black"/>
</g>
<defs>
<clipPath id="clip0">
<rect width="160" height="62" fill="white"/>
</clipPath>
</defs>
</svg>
