<svg width="121" height="120" viewBox="0 0 121 120" fill="none" xmlns="http://www.w3.org/2000/svg">
<path fill-rule="evenodd" clip-rule="evenodd" d="M75.75 48H42.75V70H75.75V48ZM40.75 46V72H77.75V46H40.75Z" fill="black"/>
<path fill-rule="evenodd" clip-rule="evenodd" d="M52.6907 56.3569L42.1675 48.813L43.3328 47.1875L58.2984 57.9161C59.0032 58.4214 59.9534 58.4149 60.6512 57.8999L75.1563 47.1956L76.3439 48.8049L66.1382 56.3363L71.1892 61.286L69.7893 62.7145L64.5082 57.5392L61.8388 59.5091C60.4432 60.5391 58.5428 60.5522 57.1331 59.5416L54.3374 57.5374L49.1983 62.7054L47.7802 61.2951L52.6907 56.3569Z" fill="black"/>
<rect x="1.5" y="1" width="118" height="118" rx="59" stroke="black" stroke-width="2"/>
</svg>
