<svg width="20" height="19" viewBox="0 0 20 19" fill="none" xmlns="http://www.w3.org/2000/svg">
<path d="M2.28494 8.69997C4.34054 11.9817 6.99089 14.36 10.4676 16.1178C10.4426 15.9069 10.4019 15.6982 10.3456 15.4933C9.63713 13.7545 10.5676 12.53 11.716 11.4524C12.3622 10.8376 13.1075 10.3345 13.921 9.96394C14.7624 9.59386 15.5874 9.94081 16.2712 10.5599C17.2922 11.4864 18.3159 12.4103 19.3574 13.315C20.3468 14.1749 20.1577 15.7858 19.049 16.5151C16.8893 17.9383 14.55 18.556 12.0271 17.9519C10.6247 17.6303 9.27683 17.1083 8.02554 16.4022C5.67489 15.0238 3.63203 13.184 2.02182 10.9953C0.541794 8.99249 -0.348965 6.80741 0.132045 4.22777C0.406125 2.7774 1.18588 1.62771 2.11912 0.574628C2.82762 -0.224028 4.4488 -0.158721 5.27789 0.584152L8.47366 3.45088C9.27671 4.16654 9.47816 5.40738 8.76144 6.18699C8.01654 6.97434 7.19793 7.68959 6.31665 8.32309C5.28063 9.09317 4.08839 9.15848 2.86873 8.7816C2.67591 8.7431 2.48098 8.71584 2.28494 8.69997ZM14.3664 16.7491C15.512 16.7369 16.7426 16.243 17.902 15.5641C18.6009 15.1559 18.6585 14.7137 18.0706 14.1627C17.0894 13.2402 16.0835 12.3409 15.0338 11.4973C14.8255 11.33 14.2636 11.3218 14.0553 11.4823C13.3347 12.0213 12.6794 12.6414 12.1025 13.33C11.7889 13.7589 11.6354 14.2827 11.6681 14.8117C11.7434 15.7246 13.2029 16.7859 14.3664 16.7491ZM4.1199 7.5979C4.28075 7.60466 4.44183 7.59187 4.59954 7.55981C5.84112 7.15164 6.70722 6.24822 7.49794 5.28357C7.61716 5.13799 7.49794 4.61145 7.31293 4.43865C6.29747 3.46993 5.23404 2.55018 4.17472 1.62635C3.77319 1.27668 3.421 1.39914 3.05785 1.76241C2.26987 2.54474 1.87519 3.51347 1.65319 4.56383C1.57254 4.92942 1.57562 5.30834 1.6622 5.67259C1.74878 6.03685 1.91665 6.37715 2.15342 6.66838C2.39019 6.95961 2.68981 7.19433 3.03017 7.35521C3.37053 7.51609 3.74294 7.59903 4.1199 7.5979Z" fill="black"/>
</svg>
